<?xml version="1.0" encoding="UTF-8" standalone="no"?>
<!-- Created with Inkscape (http://www.inkscape.org/) -->

<svg
   xmlns:dc="http://purl.org/dc/elements/1.1/"
   xmlns:cc="http://creativecommons.org/ns#"
   xmlns:rdf="http://www.w3.org/1999/02/22-rdf-syntax-ns#"
   xmlns:svg="http://www.w3.org/2000/svg"
   xmlns="http://www.w3.org/2000/svg"
   xmlns:sodipodi="http://sodipodi.sourceforge.net/DTD/sodipodi-0.dtd"
   xmlns:inkscape="http://www.inkscape.org/namespaces/inkscape"
   width="15.337989mm"
   height="10.538736mm"
   viewBox="0 0 15.337989 10.538736"
   version="1.1"
   id="svg19956"
   inkscape:version="0.92.4 (unknown)"
   sodipodi:docname="icoROHS.svg">
  <defs
     id="defs19950" />
  <sodipodi:namedview
     id="base"
     pagecolor="#ffffff"
     bordercolor="#666666"
     borderopacity="1.0"
     inkscape:pageopacity="0.0"
     inkscape:pageshadow="2"
     inkscape:zoom="31.532876"
     inkscape:cx="18.361344"
     inkscape:cy="18.647205"
     inkscape:document-units="mm"
     inkscape:current-layer="g2813"
     showgrid="false"
     inkscape:window-width="2560"
     inkscape:window-height="1440"
     inkscape:window-x="440"
     inkscape:window-y="1440"
     inkscape:window-maximized="1" />
  <metadata
     id="metadata19953">
    <rdf:RDF>
      <cc:Work
         rdf:about="">
        <dc:format>image/svg+xml</dc:format>
        <dc:type
           rdf:resource="http://purl.org/dc/dcmitype/StillImage" />
        <dc:title />
      </cc:Work>
    </rdf:RDF>
  </metadata>
  <g
     inkscape:label="Layer 1"
     inkscape:groupmode="layer"
     id="layer1"
     transform="translate(498.28209,-306.09373)">
    <g
       transform="translate(-656.85983,65.541906)"
       aria-label="ELECTRONICS"
       style="font-style:normal;font-variant:normal;font-weight:bold;font-stretch:normal;font-size:1.99846399px;line-height:1.25;font-family:inter;-inkscape-font-specification:'inter Bold';letter-spacing:0px;word-spacing:0px;display:inline;fill:#28ce3d;fill-opacity:1;stroke:none;stroke-width:0.04269761;enable-background:new"
       id="text6560">
      <path
         inkscape:connector-curvature="0"
         d="m 159.25155,251.07002 h 0.9822 v -0.25335 h -0.67491 v -0.34704 h 0.62169 v -0.25335 h -0.62169 v -0.34633 h 0.67207 v -0.25336 h -0.97936 z"
         style="font-style:normal;font-variant:normal;font-weight:bold;font-stretch:normal;font-family:inter;-inkscape-font-specification:'inter Bold';fill:#28ce3d;fill-opacity:1;stroke-width:0.04269761"
         id="path15007" />
      <path
         inkscape:connector-curvature="0"
         d="m 160.47717,251.07002 h 0.9304 v -0.25335 h -0.62311 v -1.20008 h -0.30729 z"
         style="font-style:normal;font-variant:normal;font-weight:bold;font-stretch:normal;font-family:inter;-inkscape-font-specification:'inter Bold';fill:#28ce3d;fill-opacity:1;stroke-width:0.04269761"
         id="path15009" />
      <path
         inkscape:connector-curvature="0"
         d="m 161.61302,251.07002 h 0.9822 v -0.25335 h -0.67491 v -0.34704 h 0.62168 v -0.25335 h -0.62168 v -0.34633 h 0.67207 v -0.25336 h -0.97936 z"
         style="font-style:normal;font-variant:normal;font-weight:bold;font-stretch:normal;font-family:inter;-inkscape-font-specification:'inter Bold';fill:#28ce3d;fill-opacity:1;stroke-width:0.04269761"
         id="path15011" />
      <path
         inkscape:connector-curvature="0"
         d="m 164.12103,250.12544 c -0.0404,-0.33568 -0.29451,-0.52872 -0.6309,-0.52872 -0.38394,0 -0.67704,0.2711 -0.67704,0.74659 0,0.47407 0.28813,0.74658 0.67704,0.74658 0.37258,0 0.59755,-0.24768 0.6309,-0.51523 l -0.31084,-0.001 c -0.0291,0.15542 -0.15116,0.24484 -0.3151,0.24484 -0.22071,0 -0.37045,-0.16394 -0.37045,-0.47478 0,-0.30233 0.14761,-0.47478 0.37258,-0.47478 0.1682,0 0.28955,0.0972 0.31297,0.25691 z"
         style="font-style:normal;font-variant:normal;font-weight:bold;font-stretch:normal;font-family:inter;-inkscape-font-specification:'inter Bold';fill:#28ce3d;fill-opacity:1;stroke-width:0.04269761"
         id="path15013" />
      <path
         inkscape:connector-curvature="0"
         d="m 164.28604,249.86995 h 0.44497 v 1.20007 h 0.30374 v -1.20007 h 0.44497 v -0.25336 h -1.19368 z"
         style="font-style:normal;font-variant:normal;font-weight:bold;font-stretch:normal;font-family:inter;-inkscape-font-specification:'inter Bold';fill:#28ce3d;fill-opacity:1;stroke-width:0.04269761"
         id="path15015" />
      <path
         inkscape:connector-curvature="0"
         d="m 165.6763,251.07002 h 0.30729 v -0.51523 h 0.22426 l 0.27536,0.51523 h 0.33923 l -0.30871,-0.5649 c 0.16535,-0.071 0.2569,-0.21504 0.2569,-0.41375 0,-0.28884 -0.1909,-0.47478 -0.52091,-0.47478 h -0.57342 z m 0.30729,-0.7622 v -0.44 h 0.20723 c 0.17742,0 0.26329,0.0788 0.26329,0.22355 0,0.14407 -0.0859,0.21645 -0.26187,0.21645 z"
         style="font-style:normal;font-variant:normal;font-weight:bold;font-stretch:normal;font-family:inter;-inkscape-font-specification:'inter Bold';fill:#28ce3d;fill-opacity:1;stroke-width:0.04269761"
         id="path15017" />
      <path
         inkscape:connector-curvature="0"
         d="m 168.32341,250.34331 c 0,-0.47549 -0.29522,-0.74659 -0.68058,-0.74659 -0.38749,0 -0.68058,0.2711 -0.68058,0.74659 0,0.47336 0.29309,0.74658 0.68058,0.74658 0.38536,0 0.68058,-0.27109 0.68058,-0.74658 z m -0.31155,0 c 0,0.308 -0.14619,0.47478 -0.36903,0.47478 -0.22355,0 -0.36903,-0.16678 -0.36903,-0.47478 0,-0.308 0.14548,-0.47478 0.36903,-0.47478 0.22284,0 0.36903,0.16678 0.36903,0.47478 z"
         style="font-style:normal;font-variant:normal;font-weight:bold;font-stretch:normal;font-family:inter;-inkscape-font-specification:'inter Bold';fill:#28ce3d;fill-opacity:1;stroke-width:0.04269761"
         id="path15019" />
      <path
         inkscape:connector-curvature="0"
         d="m 169.76478,249.61659 h -0.30587 v 0.91407 h -0.0128 l -0.62736,-0.91407 h -0.26968 v 1.45343 h 0.3073 v -0.91478 h 0.0106 l 0.63233,0.91478 h 0.26542 z"
         style="font-style:normal;font-variant:normal;font-weight:bold;font-stretch:normal;font-family:inter;-inkscape-font-specification:'inter Bold';fill:#28ce3d;fill-opacity:1;stroke-width:0.04269761"
         id="path15021" />
      <path
         inkscape:connector-curvature="0"
         d="m 170.32401,249.61659 h -0.30729 v 1.45343 h 0.30729 z"
         style="font-style:normal;font-variant:normal;font-weight:bold;font-stretch:normal;font-family:inter;-inkscape-font-specification:'inter Bold';fill:#28ce3d;fill-opacity:1;stroke-width:0.04269761"
         id="path15023" />
      <path
         inkscape:connector-curvature="0"
         d="m 171.86118,250.12544 c -0.0404,-0.33568 -0.29452,-0.52872 -0.63091,-0.52872 -0.38394,0 -0.67703,0.2711 -0.67703,0.74659 0,0.47407 0.28813,0.74658 0.67703,0.74658 0.37258,0 0.59755,-0.24768 0.63091,-0.51523 l -0.31084,-0.001 c -0.0291,0.15542 -0.15116,0.24484 -0.3151,0.24484 -0.22071,0 -0.37045,-0.16394 -0.37045,-0.47478 0,-0.30233 0.14761,-0.47478 0.37258,-0.47478 0.16819,0 0.28955,0.0972 0.31297,0.25691 z"
         style="font-style:normal;font-variant:normal;font-weight:bold;font-stretch:normal;font-family:inter;-inkscape-font-specification:'inter Bold';fill:#28ce3d;fill-opacity:1;stroke-width:0.04269761"
         id="path15025" />
      <path
         inkscape:connector-curvature="0"
         d="m 172.86999,250.0346 h 0.29452 c -0.004,-0.25904 -0.21716,-0.43788 -0.54078,-0.43788 -0.31865,0 -0.55213,0.176 -0.55071,0.44001 -7.1e-4,0.21432 0.15045,0.33709 0.396,0.396 l 0.15826,0.0397 c 0.15826,0.0383 0.24626,0.0837 0.24697,0.18168 -7.1e-4,0.10645 -0.10148,0.17884 -0.25761,0.17884 -0.15968,0 -0.27465,-0.0738 -0.28459,-0.21929 h -0.29735 c 0.008,0.31439 0.23277,0.4769 0.58548,0.4769 0.35484,0 0.56349,-0.16961 0.5642,-0.43574 -7.1e-4,-0.242 -0.1831,-0.37046 -0.43574,-0.42723 l -0.13059,-0.0312 c -0.12632,-0.0291 -0.23206,-0.0759 -0.22993,-0.18025 0,-0.0937 0.083,-0.16252 0.23348,-0.16252 0.14691,0 0.23704,0.0667 0.24839,0.18097 z"
         style="font-style:normal;font-variant:normal;font-weight:bold;font-stretch:normal;font-family:inter;-inkscape-font-specification:'inter Bold';fill:#28ce3d;fill-opacity:1;stroke-width:0.04269761"
         id="path15027" />
    </g>
    <g
       style="display:inline;stroke-width:0.8546086;enable-background:new"
       id="g2813"
       transform="matrix(0.37685477,0,0,0.37685477,-602.48243,154.14035)">
      <path
         style="fill:#00c210;fill-opacity:1;stroke-width:0.8546086"
         d="m 296.46685,403.21881 c -7.71397,0.15281 -14.87245,4.66861 -17.9662,8.38111 -1.6,1.9 -2.00066,2.59955 -2.00066,3.59955 0,1 1.7,2.10041 2.7,3.10041 13.3,13.3 34.40025,3.40065 38.00025,-8.79935 -2.2,0.7 -4.60078,0.29939 -10.20078,-3.30061 -3.40625,-2.21875 -7.02627,-3.05057 -10.53261,-2.98111 z m 7.87101,4.73083 c 0.0625,0 0.1118,0.0508 0.1618,0.15084 0.2,0.5 0.20087,1.2999 -0.49913,2.5999 -0.5,0.9 -1.20056,2.09934 -1.90056,3.39934 0.4,0.2 0.60071,0.50072 0.70071,0.70071 0,0.1 -2.1e-4,0.20021 -0.20021,0.20021 -0.3,0 -0.60091,-0.1 -0.90091,0 -0.6,1.1 -1.19899,2.29955 -1.69899,3.59954 -0.1,0.20001 -0.2003,0.20001 -0.3003,0 -0.2,-0.29999 -0.4001,-0.80056 -0.1001,-1.90056 0.1,-0.3 0.39934,-0.90025 0.69934,-1.60025 -1.2,0.2 -2.49924,0.40041 -3.29924,0.40041 -0.5,1 -1.00016,2.20061 -1.50016,3.30061 -0.1,0.2 -0.2003,0.2001 -0.3003,0.1001 -0.3,-0.4 -0.4001,-0.80056 -0.1001,-1.90056 0.1,-0.4 0.40071,-1.00036 0.70071,-1.70036 -0.4,-0.2 -0.50061,-0.39914 -0.60061,-0.49914 -0.1,-0.19999 -0.0998,-0.3003 0.2002,-0.3003 h 0.69934 c 1.1,-2.2 2.70061,-5.19945 3.30061,-6.19945 0.2,-0.2 0.30041,-0.2 0.40041,0 0.3,0.5 0.19959,1.2998 -0.40041,2.4998 -0.5,0.9 -1.20056,2.09955 -1.90056,3.59955 1.2,-0.1 2.20062,-0.40051 3.30062,-0.50051 1.1,-2.2 2.60061,-4.89904 3.30061,-5.79904 0.1,-0.1 0.17473,-0.15084 0.23723,-0.15084 z m -16.33852,0.0507 c 0.9,0 1.60066,0.20005 2.00066,1.40005 0.4,1 0.0995,2.00021 -0.5005,2.90021 -0.9,1.2 -2.6992,2.3 -4.5992,2.7 0.6,0.8 1.30026,1.59959 1.60026,2.29959 0.2,0.5 0.3001,1.00006 0.1001,1.40006 -0.1,0.1 -0.2003,0.2 -0.3003,0 -1.1,-1.5 -2.00011,-2.60082 -2.80011,-3.50082 -0.3,1 -0.80005,2.00071 -1.40005,3.40071 -0.1,0.20001 -0.20031,0.20011 -0.30031,0.10011 -0.2,-0.3 -0.4002,-0.80036 -0.2002,-1.70036 0.4,-1.5 2.00082,-4.80036 3.50082,-7.10036 -0.6,-0.1 -0.90112,-0.29934 -1.10112,-0.69934 -0.1,-0.2 2e-4,-0.30031 0.2002,-0.30031 1.4,-0.2 2.69975,-0.89954 3.79975,-0.89954 z m 21.07621,0.1001 c 0.37499,-0.025 0.72432,0.0489 1.02432,0.29893 0.4,0.4 0.69945,0.90005 0.79945,1.40005 0.2,0.7 -0.19914,1.30036 -0.49914,1.70036 -0.4,0.6 -0.89985,1.50056 -1.19985,1.90056 -0.1,0.1 -0.20041,0.2 -0.40041,0 -0.3,-0.3 -0.5002,-0.80025 -0.2002,-1.60025 0.4,-0.8 1.59985,-2.1999 1.19985,-2.5999 -0.6,-0.6 -4.6994,2.00005 -4.7994,4.10005 -0.1,1.1 2.10041,2 3.10041,2.7 0.6,0.5 0.5998,1.1994 -0.2002,2.0994 -1,1.2 -4.00092,1.49994 -6.30092,-1.40006 -0.2,-0.2 -0.1,-0.29903 0,-0.39903 0.8,-0.2 1.50056,-9.7e-4 1.90056,0.39903 0.7,0.5 1.8002,1.40006 2.90021,1.40006 0.49999,0 0.79964,-0.10031 0.99964,-0.30031 0.3,-0.3 0.2,-0.69954 0,-0.89954 -0.9,-0.8 -3.59955,-1.79955 -3.59955,-3.59955 0,-2.3 2.60006,-4.30087 4.10006,-4.90087 0.4,-0.15 0.80017,-0.27393 1.17517,-0.29893 z m -20.47423,1.08878 c -0.69238,0.041 -1.61346,0.4227 -2.30096,0.6102 0,0.5 -0.20072,1.10057 -0.70072,1.90057 -0.5,0.8 -0.89995,1.49969 -1.29995,2.39969 3.7,-0.8 5.69981,-3.29909 5.19981,-4.49909 -0.15,-0.3375 -0.48275,-0.43598 -0.89818,-0.41137 z m 3.99859,2.91117 c 0.5,0 0.79984,0.0992 1.19984,0.59924 0.4,0.5 0.90082,0.60056 0.80082,1.90056 v 0.40041 h 0.29893 c 0.1,0 0.1001,0.0988 0.1001,0.19883 -0.3,-0.1 -0.39924,-0.1 -0.59924,0 -0.4,1.4 -1.4,3.10092 -2.7,3.60092 -0.6,0.2 -1.50076,0.0993 -2.10076,-0.70071 -0.7,-1 -0.4997,-2.49975 0.3003,-3.79975 0.6,-1.2 1.70001,-2.0995 2.70001,-2.1995 z m 0.64997,0.77476 c -0.1,0.025 -0.19957,0.17509 -0.24957,0.42509 -0.1,0.5 0.099,0.89985 0.39904,1.19985 0.1,-0.5 0.2001,-0.99995 0.1001,-1.29995 -0.05,-0.25 -0.14957,-0.34999 -0.24957,-0.32499 z m -1.05038,0.32499 c -0.5,0.4 -0.89995,0.90026 -1.29995,1.60025 -0.7,1.30001 -0.99914,2.79915 -0.49914,3.19915 0.5,0.4 1.4996,-0.19909 2.2996,-1.79909 0.3,-0.5 0.50061,-0.90005 0.60061,-1.40006 -0.1,0.1 -0.20031,-10e-5 -0.30031,-0.1001 -0.4,-0.3 -0.80081,-0.90015 -0.80081,-1.50015 z"
         id="path2799"
         inkscape:connector-curvature="0" />
      <path
         style="opacity:1;fill:#15ec00;fill-opacity:1;stroke-width:0.8546086"
         d="m 296.80006,403.39981 c 0.9,1.3 -1.59959,4.4999 -2.29959,5.2999 -1.73225,-0.27351 -3.3159,-0.22904 -4.81997,0.0357 0.12024,0.1785 0.22889,0.39322 0.3195,0.66506 0.0952,0.23805 0.14876,0.47497 0.17004,0.71168 0.67502,0.25131 1.46366,0.83665 2.25435,2.0226 0.0585,-0.0111 0.11755,-0.0285 0.17552,-0.0343 0.0985,0 0.18487,0.008 0.27013,0.0178 -0.61598,-1.11882 -1.2327,-1.8484 -1.77029,-2.31879 2.10465,-0.18301 4.46297,0.0604 6.99341,0.86801 0.19056,-0.35559 0.29856,-0.54004 0.46622,-0.84607 -1.26317,-0.52057 -2.44585,-0.88962 -3.55978,-1.12169 0.2,-0.3 0.40071,-0.69974 0.70071,-1.09974 0.60001,-0.2 4.29905,-1.69965 5.79905,-3.69965 -1.5,1.8 -4.69884,2.99934 -5.59884,3.39934 0.8,-1.3 1.49954,-3.09985 0.89954,-3.89985 z m 14.59976,5.2999 c -0.0969,0.27445 -0.30593,0.58883 -0.55535,0.91463 0.0109,0.0367 0.0241,0.0729 0.0329,0.1097 0.22652,-0.35413 0.42081,-0.7025 0.52244,-1.02433 z m -22.7985,0.48954 c -0.69238,0.041 -1.61346,0.42271 -2.30096,0.61021 0,0.35891 -0.10932,0.77358 -0.35242,1.27253 1.15452,-0.42967 2.35774,-0.7856 3.62286,-1.02296 0.005,-0.16245 -0.0154,-0.31425 -0.0713,-0.4484 -0.15,-0.3375 -0.48275,-0.43599 -0.89818,-0.41138 z m 28.29861,0.41138 -1.80046,1.49878 c 0.6,-0.4 1.20046,-0.89878 1.80046,-1.49878 z m -17.27782,0.687 c -0.0694,0.16722 -0.1291,0.32676 -0.22215,0.51285 -0.0935,0.16826 -0.22158,0.39904 -0.32773,0.58827 0.29059,0.54056 0.74656,1.35774 1.49193,2.5423 0.0791,-0.009 0.1558,-0.0243 0.23586,-0.0315 0.0226,-0.0451 0.0498,-0.0944 0.0727,-0.13987 -0.7016,-1.26091 -1.20005,-2.28057 -1.37262,-2.66024 0.74848,0.26732 1.49626,0.59743 2.24474,0.97908 0.0977,-0.18324 0.19396,-0.35415 0.29208,-0.53479 -0.83967,-0.48241 -1.64184,-0.89621 -2.41478,-1.25607 z m -14.80545,0.0658 c -1.64295,0.76433 -3.27896,1.68935 -5.01606,2.64652 -2.2,1.2 -2.70041,1.8 -3.10041,2.7 l 0.20021,0.30031 c 0.8,-0.6 0.59969,-0.70036 2.39969,-1.70036 1.45384,-0.79726 2.97696,-1.63418 4.59371,-2.37501 0.30202,-0.54548 0.61089,-1.07177 0.92286,-1.57146 z m 30.18271,0.94616 c -3.2,2.4 -5.49874,3.50001 -8.19874,2.70001 0.30247,-0.26466 0.94768,-0.8164 1.66608,-1.50153 0.003,-0.17939 0.0267,-0.37391 0.10284,-0.60198 -1.08895,0.93242 -2.13441,1.71521 -2.36953,1.9033 -0.38351,-0.12783 -0.78776,-0.29866 -1.19985,-0.49913 -0.0342,0.37569 0.21019,0.72683 0.57319,1.05586 3.24281,1.57143 5.62069,0.15685 9.42601,-3.05653 z m -11.84491,0.91326 c -0.0919,0.16224 -0.17701,0.31916 -0.27288,0.48954 0.2729,0.16024 0.54574,0.32233 0.81864,0.49776 0.0348,0.0259 0.0669,0.046 0.10148,0.0713 0.002,-0.20316 0.0288,-0.40298 0.0686,-0.60061 -0.18969,-0.11877 -0.38007,-0.23698 -0.57044,-0.37024 -0.0495,-0.0309 -0.0962,-0.0573 -0.14536,-0.0878 z m -9.90458,0.66232 c -0.0806,0.0202 -0.15401,0.14031 -0.20843,0.3099 0.14405,0.28 0.28624,0.58512 0.42783,0.91326 0.0369,-0.21135 0.0693,-0.41869 0.0686,-0.59238 -0.0936,-0.22118 -0.18778,-0.43082 -0.28247,-0.63078 -0.002,3.7e-4 -0.004,-4.6e-4 -0.005,0 z m 8.39894,2.2228 c -0.0484,0.0891 -0.0943,0.18793 -0.14261,0.27837 0.18981,0.2813 0.3994,0.56886 0.60198,0.85566 0.0902,-0.004 0.17357,0.004 0.25917,0.01 -0.25193,-0.39025 -0.49233,-0.76698 -0.71854,-1.14363 z m -7.3705,0.4676 c -0.0403,0.11615 -0.084,0.23207 -0.13164,0.34967 0.68335,2.10277 1.29844,4.91085 1.75384,8.68417 -0.21251,-2.31395 -0.5051,-4.27049 -0.84607,-5.94577 -0.0789,-0.1585 -0.12055,-0.34909 -0.12341,-0.58141 -0.20369,-0.92853 -0.42288,-1.7595 -0.65272,-2.50666 z m 9.58234,2.97563 c 0.8833,1.06344 1.8135,2.03853 2.73977,2.75896 -0.89399,-0.71519 -1.76049,-1.66075 -2.56562,-2.68766 -0.0581,-0.024 -0.11585,-0.0445 -0.17415,-0.0713 z"
         id="path2801"
         inkscape:connector-curvature="0" />
    </g>
  </g>
</svg>
